<svg xmlns="http://www.w3.org/2000/svg" viewBox="0 0 16 16">
  <!-- Triángulo original -->
  <path fill="#e0e0e0" d="M7.58 6.11c.13-.2.28-.22.4-.22.1 0 .3.03.43.22 1.03 1.4 2.74 4.2 4 6.27a36 36 0 0 0 1.57 2.51c.48.5 1.15.19 1.53-.37.38-.55.49-.94.49-1.36 0-.28-5.5-10.43-6.06-11.28C9.4 1.07 9.24.86 8.32.86h-.68c-.91 0-1.04.2-1.58 1.02-.55.85-6.06 11-6.06 11.28 0 .42.1.8.49 1.36.38.56 1.05.87 1.53.37.13-.13.76-1.16 1.58-2.51C4.85 10.3 6.55 7.5 7.58 6.1"/>
  
  <!-- Nube azul más a la derecha -->
  <g>
    <circle cx="11.5" cy="13.5" r="1.2" fill="#4a90e2"/>
    <circle cx="13" cy="13.5" r="1.4" fill="#4a90e2"/>
    <circle cx="14.2" cy="13.8" r="1" fill="#4a90e2"/>
    <circle cx="12.2" cy="14.2" r="1.3" fill="#4a90e2"/>
    <ellipse cx="12.8" cy="14.5" rx="2" ry="0.8" fill="#4a90e2"/>
  </g>
</svg>