<svg viewBox="0 0 200 240" xmlns="http://www.w3.org/2000/svg">
  <!-- Document background -->
  <rect x="20" y="10" width="160" height="220" rx="8" fill="#ffffff" stroke="#e0e0e0" stroke-width="2"/>
  
  <!-- Folded corner -->
  <path d="M 180 10 L 180 40 L 150 40 Z" fill="#f0f0f0" stroke="#e0e0e0" stroke-width="2"/>
  <line x1="150" y1="40" x2="180" y2="10" stroke="#e0e0e0" stroke-width="2"/>
  
  <!-- EAS logo/icon area -->
  <circle cx="100" cy="60" r="25" fill="#4630EB" opacity="0.1"/>
  <text x="100" y="70" font-family="Arial, sans-serif" font-size="24" font-weight="bold" fill="#4630EB" text-anchor="middle">EAS</text>
  
  <!-- JSON content lines -->
  <rect x="35" y="105" width="8" height="8" fill="#E8453C"/>
  <rect x="48" y="105" width="80" height="3" rx="1.5" fill="#d0d0d0"/>
  
  <rect x="50" y="120" width="4" height="4" fill="#6B48FF"/>
  <rect x="59" y="120" width="65" height="3" rx="1.5" fill="#d0d0d0"/>
  
  <rect x="50" y="132" width="4" height="4" fill="#6B48FF"/>
  <rect x="59" y="132" width="50" height="3" rx="1.5" fill="#d0d0d0"/>
  
  <rect x="50" y="144" width="4" height="4" fill="#6B48FF"/>
  <rect x="59" y="144" width="70" height="3" rx="1.5" fill="#d0d0d0"/>
  
  <rect x="35" y="160" width="8" height="8" fill="#E8453C"/>
  <rect x="48" y="160" width="60" height="3" rx="1.5" fill="#d0d0d0"/>
  
  <rect x="50" y="175" width="4" height="4" fill="#6B48FF"/>
  <rect x="59" y="175" width="75" height="3" rx="1.5" fill="#d0d0d0"/>
  
  <!-- Curly braces -->
  <text x="30" y="100" font-family="monospace" font-size="14" fill="#666">{</text>
  <text x="30" y="195" font-family="monospace" font-size="14" fill="#666">}</text>
  
  <!-- File extension label -->
  <rect x="60" y="205" width="80" height="20" rx="4" fill="#4630EB"/>
  <text x="100" y="219" font-family="Arial, sans-serif" font-size="12" font-weight="bold" fill="#ffffff" text-anchor="middle">eas.json</text>
</svg>