<svg xmlns="http://www.w3.org/2000/svg" viewBox="0 0 16 16">
  <!-- Triángulo original -->
  <path fill="#e0e0e0" d="M7.58 6.11c.13-.2.28-.22.4-.22.1 0 .3.03.43.22 1.03 1.4 2.74 4.2 4 6.27a36 36 0 0 0 1.57 2.51c.48.5 1.15.19 1.53-.37.38-.55.49-.94.49-1.36 0-.28-5.5-10.43-6.06-11.28C9.4 1.07 9.24.86 8.32.86h-.68c-.91 0-1.04.2-1.58 1.02-.55.85-6.06 11-6.06 11.28 0 .42.1.8.49 1.36.38.56 1.05.87 1.53.37.13-.13.76-1.16 1.58-2.51C4.85 10.3 6.55 7.5 7.58 6.1"/>
  
  <!-- Nube azul a la izquierda (subida 2px) -->
  <g transform="translate(0.5, 9) scale(0.016)">
    <path fill="#4630eb" d="M396.007,191.19c-0.478,0-1.075,0-1.554,0c-6.693-54.147-52.833-96.103-108.773-96.103
      c-48.171,0-89.051,31.078-103.753,74.349c-16.734-8.128-35.381-12.67-55.224-12.67C56.658,156.765,0,213.542,0,283.707
      c0,67.416,52.594,122.64,118.934,126.703v0.239h277.91c60.244-0.358,108.893-49.366,108.893-109.729
      C505.617,240.317,456.609,191.19,396.007,191.19z"/>
  </g>
</svg>